<svg id="visual" viewBox="0 0 960 300" width="960" height="300" xmlns="http://www.w3.org/2000/svg" xmlns:xlink="http://www.w3.org/1999/xlink" version="1.1"><rect x="0" y="0" width="960" height="300" fill="#202731"></rect><path d="M0 177L22.8 169.5C45.7 162 91.3 147 137 149.5C182.7 152 228.3 172 274 179.2C319.7 186.3 365.3 180.7 411.2 174.7C457 168.7 503 162.3 548.8 159C594.7 155.7 640.3 155.3 686 160.8C731.7 166.3 777.3 177.7 823 175.3C868.7 173 914.3 157 937.2 149L960 141L960 0L937.2 0C914.3 0 868.7 0 823 0C777.3 0 731.7 0 686 0C640.3 0 594.7 0 548.8 0C503 0 457 0 411.2 0C365.3 0 319.7 0 274 0C228.3 0 182.7 0 137 0C91.3 0 45.7 0 22.8 0L0 0Z" fill="#fa7268"></path><path d="M0 109L22.8 114.8C45.7 120.7 91.3 132.3 137 132.2C182.7 132 228.3 120 274 113.7C319.7 107.3 365.3 106.7 411.2 116C457 125.3 503 144.7 548.8 152.5C594.7 160.3 640.3 156.7 686 152.5C731.7 148.3 777.3 143.7 823 140.7C868.7 137.7 914.3 136.3 937.2 135.7L960 135L960 0L937.2 0C914.3 0 868.7 0 823 0C777.3 0 731.7 0 686 0C640.3 0 594.7 0 548.8 0C503 0 457 0 411.2 0C365.3 0 319.7 0 274 0C228.3 0 182.7 0 137 0C91.3 0 45.7 0 22.8 0L0 0Z" fill="#f3665b"></path><path d="M0 110L22.8 109C45.7 108 91.3 106 137 102.2C182.7 98.3 228.3 92.7 274 96.5C319.7 100.3 365.3 113.7 411.2 112.5C457 111.3 503 95.7 548.8 93.7C594.7 91.7 640.3 103.3 686 106.3C731.7 109.3 777.3 103.7 823 99.2C868.7 94.7 914.3 91.3 937.2 89.7L960 88L960 0L937.2 0C914.3 0 868.7 0 823 0C777.3 0 731.7 0 686 0C640.3 0 594.7 0 548.8 0C503 0 457 0 411.2 0C365.3 0 319.7 0 274 0C228.3 0 182.7 0 137 0C91.3 0 45.7 0 22.8 0L0 0Z" fill="#ec594d"></path><path d="M0 49L22.8 52.3C45.7 55.7 91.3 62.3 137 65.2C182.7 68 228.3 67 274 67.2C319.7 67.3 365.3 68.7 411.2 65C457 61.3 503 52.7 548.8 49.7C594.7 46.7 640.3 49.3 686 57.3C731.7 65.3 777.3 78.7 823 80.3C868.7 82 914.3 72 937.2 67L960 62L960 0L937.2 0C914.3 0 868.7 0 823 0C777.3 0 731.7 0 686 0C640.3 0 594.7 0 548.8 0C503 0 457 0 411.2 0C365.3 0 319.7 0 274 0C228.3 0 182.7 0 137 0C91.3 0 45.7 0 22.8 0L0 0Z" fill="#e54c3f"></path><path d="M0 29L22.8 31C45.7 33 91.3 37 137 39.7C182.7 42.3 228.3 43.7 274 46C319.7 48.3 365.3 51.7 411.2 50.2C457 48.7 503 42.3 548.8 42.5C594.7 42.7 640.3 49.3 686 49.5C731.7 49.7 777.3 43.3 823 41.5C868.7 39.7 914.3 42.3 937.2 43.7L960 45L960 0L937.2 0C914.3 0 868.7 0 823 0C777.3 0 731.7 0 686 0C640.3 0 594.7 0 548.8 0C503 0 457 0 411.2 0C365.3 0 319.7 0 274 0C228.3 0 182.7 0 137 0C91.3 0 45.7 0 22.8 0L0 0Z" fill="#dd3f31"></path></svg>