<svg id="visual" viewBox="0 0 960 300" width="960" height="300" xmlns="http://www.w3.org/2000/svg"
     version="1.1">
    <rect x="0" y="0" width="960" height="300" fill="#202731"></rect>
    <path d="M0 167L22.8 164.2C45.7 161.3 91.3 155.7 137 161.3C182.7 167 228.3 184 274 186.5C319.7 189 365.3 177 411.2 172.8C457 168.7 503 172.3 548.8 185.5C594.7 198.7 640.3 221.3 686 231.7C731.7 242 777.3 240 823 232.2C868.7 224.3 914.3 210.7 937.2 203.8L960 197L960 0L937.2 0C914.3 0 868.7 0 823 0C777.3 0 731.7 0 686 0C640.3 0 594.7 0 548.8 0C503 0 457 0 411.2 0C365.3 0 319.7 0 274 0C228.3 0 182.7 0 137 0C91.3 0 45.7 0 22.8 0L0 0Z"
          fill="#e07f78"></path>
    <path d="M0 200L22.8 192.8C45.7 185.7 91.3 171.3 137 171.7C182.7 172 228.3 187 274 190C319.7 193 365.3 184 411.2 174.5C457 165 503 155 548.8 145.7C594.7 136.3 640.3 127.7 686 128.7C731.7 129.7 777.3 140.3 823 148.3C868.7 156.3 914.3 161.7 937.2 164.3L960 167L960 0L937.2 0C914.3 0 868.7 0 823 0C777.3 0 731.7 0 686 0C640.3 0 594.7 0 548.8 0C503 0 457 0 411.2 0C365.3 0 319.7 0 274 0C228.3 0 182.7 0 137 0C91.3 0 45.7 0 22.8 0L0 0Z"
          fill="#e96e70"></path>
    <path d="M0 101L22.8 108.8C45.7 116.7 91.3 132.3 137 141.2C182.7 150 228.3 152 274 147.2C319.7 142.3 365.3 130.7 411.2 130C457 129.3 503 139.7 548.8 137.5C594.7 135.3 640.3 120.7 686 112.8C731.7 105 777.3 104 823 109.2C868.7 114.3 914.3 125.7 937.2 131.3L960 137L960 0L937.2 0C914.3 0 868.7 0 823 0C777.3 0 731.7 0 686 0C640.3 0 594.7 0 548.8 0C503 0 457 0 411.2 0C365.3 0 319.7 0 274 0C228.3 0 182.7 0 137 0C91.3 0 45.7 0 22.8 0L0 0Z"
          fill="#f15a6a"></path>
    <path d="M0 99L22.8 98.7C45.7 98.3 91.3 97.7 137 99.5C182.7 101.3 228.3 105.7 274 104C319.7 102.3 365.3 94.7 411.2 91.2C457 87.7 503 88.3 548.8 92.5C594.7 96.7 640.3 104.3 686 108.2C731.7 112 777.3 112 823 108C868.7 104 914.3 96 937.2 92L960 88L960 0L937.2 0C914.3 0 868.7 0 823 0C777.3 0 731.7 0 686 0C640.3 0 594.7 0 548.8 0C503 0 457 0 411.2 0C365.3 0 319.7 0 274 0C228.3 0 182.7 0 137 0C91.3 0 45.7 0 22.8 0L0 0Z"
          fill="#f83f67"></path>
    <path d="M0 47L22.8 47.7C45.7 48.3 91.3 49.7 137 46C182.7 42.3 228.3 33.7 274 34.3C319.7 35 365.3 45 411.2 50.7C457 56.3 503 57.7 548.8 53.5C594.7 49.3 640.3 39.7 686 42C731.7 44.3 777.3 58.7 823 65.2C868.7 71.7 914.3 70.3 937.2 69.7L960 69L960 0L937.2 0C914.3 0 868.7 0 823 0C777.3 0 731.7 0 686 0C640.3 0 594.7 0 548.8 0C503 0 457 0 411.2 0C365.3 0 319.7 0 274 0C228.3 0 182.7 0 137 0C91.3 0 45.7 0 22.8 0L0 0Z"
          fill="#ff0066"></path>
</svg>